<?xml version="1.0" encoding="UTF-8"?>
<svg id="Layer_1" data-name="Layer 1" xmlns="http://www.w3.org/2000/svg" viewBox="0 0 1224 792">
  <defs>
    <style>
      .cls-1 {
        fill: #ede6d6;
      }

      .cls-2 {
        fill: #0d4f42;
      }
    </style>
  </defs>
  <rect class="cls-2" x="-1244" y="-9.18" width="1246.52" height="810.63"/>
  <g>
    <g>
      <path class="cls-1" d="M444.05,354.94c0,4.38-.74,8.6-2.23,12.66-1.49,4.07-3.71,7.64-6.68,10.73-2.97,3.09-6.74,5.55-11.32,7.39-4.57,1.84-9.95,2.76-16.12,2.76-4.07,0-7.88-.69-11.43-2.05-3.56-1.37-6.7-3.22-9.44-5.57v.94c0,1.56-.59,2.95-1.76,4.16-1.17,1.21-2.58,1.82-4.22,1.82h-.7c-1.64,0-3.05-.59-4.22-1.76-1.17-1.17-1.76-2.58-1.76-4.22v-83.96c0-1.72.59-3.15,1.76-4.28,1.17-1.13,2.58-1.7,4.22-1.7h.7c1.64,0,3.05.59,4.22,1.76,1.17,1.17,1.76,2.58,1.76,4.22v31.19c2.74-2.35,5.88-4.2,9.44-5.57,3.56-1.37,7.37-2.05,11.43-2.05,6.25,0,11.67.92,16.24,2.76,4.57,1.84,8.34,4.28,11.32,7.33,2.97,3.05,5.18,6.61,6.63,10.67,1.45,4.07,2.17,8.33,2.17,12.78ZM430.91,354.94c0-2.89-.47-5.63-1.41-8.21-.94-2.58-2.35-4.85-4.22-6.8-1.88-1.95-4.28-3.52-7.21-4.69s-6.39-1.76-10.38-1.76c-4.85,0-9.09,1.13-12.72,3.4-3.64,2.27-6.35,5.16-8.15,8.68-.23.86-.47,1.8-.7,2.81-.16.86-.31,1.9-.47,3.11-.16,1.21-.23,2.48-.23,3.81,0,1.41.1,2.87.29,4.4.19,1.52.57,3.07,1.11,4.63,1.8,3.52,4.51,6.41,8.15,8.68,3.64,2.27,7.88,3.4,12.72,3.4,3.99,0,7.43-.59,10.32-1.76,2.89-1.17,5.3-2.76,7.21-4.75,1.91-1.99,3.34-4.28,4.28-6.86.94-2.58,1.41-5.28,1.41-8.09Z"/>
      <path class="cls-1" d="M530.47,374.99c0,2.42-1.27,4.48-3.81,6.16-2.54,1.68-5.55,3.07-9.03,4.16-3.48,1.1-7,1.89-10.55,2.4-3.56.51-6.35.76-8.38.76-5,0-9.67-.72-14.01-2.17-4.34-1.45-8.13-3.58-11.37-6.39-3.24-2.81-5.8-6.31-7.68-10.5-1.88-4.18-2.81-9.01-2.81-14.48s.94-10.3,2.81-14.48c1.88-4.18,4.44-7.68,7.68-10.5,3.24-2.81,7.04-4.94,11.37-6.39,4.34-1.45,9.01-2.17,14.01-2.17s9.11.64,13.02,1.93c3.91,1.29,7.25,3.13,10.03,5.51,2.77,2.39,4.92,5.32,6.45,8.79,1.52,3.48,2.29,7.41,2.29,11.78,0,3.52-1.25,6.37-3.75,8.56-2.5,2.19-5.51,3.28-9.03,3.28h-41.86c1.33,4.93,4.08,8.74,8.27,11.43,4.18,2.7,9.09,4.05,14.72,4.05,2.11,0,4.22-.21,6.33-.64,2.11-.43,4.12-.98,6.04-1.64,1.91-.66,3.71-1.41,5.39-2.23,1.68-.82,3.11-1.58,4.28-2.29,1.01-.62,2.07-.94,3.17-.94,1.8,0,3.32.55,4.57,1.64,1.25,1.1,1.88,2.54,1.88,4.34ZM516.87,345.91c-.08-2.35-.69-4.34-1.82-5.98-1.13-1.64-2.58-2.97-4.34-3.99-1.76-1.02-3.69-1.74-5.8-2.17-2.11-.43-4.1-.64-5.98-.64-2.81,0-5.47.39-7.97,1.17-2.5.78-4.77,1.92-6.8,3.4-2.03,1.49-3.75,3.25-5.16,5.28-1.41,2.03-2.42,4.3-3.05,6.8h38.34c1.17,0,1.89-.35,2.17-1.06.27-.7.41-1.64.41-2.81Z"/>
      <path class="cls-1" d="M581.77,396.92c-1.06,3.05-2.74,5.78-5.04,8.21-2.31,2.42-5.28,4.4-8.91,5.92s-8.03,2.29-13.19,2.29c-5.79,0-10.36-.76-13.72-2.29-3.36-1.52-5.92-3.22-7.68-5.1-1.76-1.88-2.89-3.63-3.4-5.28-.51-1.64-.76-2.54-.76-2.7,0-2.27.94-4.07,2.81-5.39,1.02-.7,2.19-1.06,3.52-1.06,1.1,0,2.11.23,3.05.7.94.47,1.72,1.17,2.35,2.11,1.48,2.27,3.6,3.89,6.33,4.87,2.74.98,5.39,1.47,7.97,1.47,4.93,0,8.75-1.15,11.49-3.46,2.74-2.31,4.1-5.45,4.1-9.44v-51.71h-10.2c-1.8,0-3.34-.6-4.63-1.82-1.29-1.21-1.93-2.72-1.93-4.51s.64-3.3,1.93-4.51c1.29-1.21,2.83-1.82,4.63-1.82h16.89c1.64,0,3.05.59,4.22,1.76,1.17,1.17,1.76,2.58,1.76,4.22v58.4c0,3.05-.53,6.1-1.58,9.15ZM581.13,304.75c0,2.27-.78,4.16-2.35,5.69-1.56,1.52-3.4,2.29-5.51,2.29-2.27,0-4.14-.8-5.63-2.4-1.49-1.6-2.23-3.46-2.23-5.57s.74-3.95,2.23-5.51c1.48-1.56,3.36-2.35,5.63-2.35s4.14.74,5.63,2.23c1.48,1.49,2.23,3.36,2.23,5.63Z"/>
      <path class="cls-1" d="M669.89,385.96c-1.17,1.21-2.58,1.82-4.22,1.82h-.7c-1.64,0-3.05-.59-4.22-1.76-1.17-1.17-1.76-2.58-1.76-4.22v-3.28c-1.56.94-3.4,1.99-5.51,3.17-2.11,1.17-4.46,2.27-7.04,3.28-2.58,1.02-5.32,1.86-8.21,2.52-2.89.66-5.9,1-9.03,1-3.28,0-6.31-.53-9.09-1.58-2.78-1.06-5.14-2.54-7.09-4.46-1.95-1.91-3.48-4.18-4.57-6.8-1.1-2.62-1.64-5.53-1.64-8.74s.55-5.92,1.64-8.38c1.09-2.46,2.62-4.55,4.57-6.27,1.95-1.72,4.32-3.01,7.09-3.87,2.77-.86,5.8-1.29,9.09-1.29h29.43c-.31-3.75-2.07-6.82-5.28-9.21-3.21-2.38-7.7-3.58-13.49-3.58-2.89,0-5.51.33-7.86,1-2.35.67-4.42,1.37-6.21,2.11-1.8.74-3.38,1.45-4.75,2.11-1.37.66-2.48,1-3.34,1-1.8,0-3.36-.53-4.69-1.58-1.33-1.06-1.99-2.48-1.99-4.28,0-2.27,1.11-4.18,3.34-5.75,2.23-1.56,4.91-2.85,8.03-3.87,3.13-1.01,6.31-1.74,9.56-2.17,3.24-.43,5.88-.65,7.92-.65,4.38,0,8.5.51,12.37,1.52,3.87,1.02,7.23,2.68,10.08,4.98,2.85,2.31,5.12,5.36,6.8,9.15,1.68,3.79,2.52,8.46,2.52,14.01v29.9c0,1.56-.59,2.95-1.76,4.16ZM658.99,358.58h-29.78c-2.42,0-4.65.63-6.68,1.88-2.03,1.25-3.05,3.32-3.05,6.21,0,2.74.94,5.04,2.81,6.92,1.88,1.88,4.18,2.81,6.92,2.81,3.52,0,6.66-.31,9.44-.94,2.77-.62,5.34-1.43,7.68-2.4,2.35-.98,4.53-2.05,6.57-3.22,2.03-1.17,4.06-2.35,6.1-3.52v-7.74Z"/>
      <path class="cls-1" d="M755.38,386.07c-1.17,1.13-2.58,1.7-4.22,1.7h-.7c-1.64,0-3.05-.59-4.22-1.76-1.17-1.17-1.76-2.58-1.76-4.22v-2.58c-2.27,2.74-4.87,4.97-7.8,6.68-2.93,1.72-6.31,2.58-10.14,2.58-5.47,0-10.12-.69-13.95-2.05-3.83-1.37-6.96-3.26-9.38-5.69-2.42-2.42-4.18-5.26-5.28-8.5-1.1-3.24-1.64-6.74-1.64-10.5v-32.36c0-1.72.59-3.15,1.76-4.28,1.17-1.13,2.58-1.7,4.22-1.7h.7c1.64,0,3.05.59,4.22,1.76,1.17,1.17,1.76,2.58,1.76,4.22v32.36c0,2.5.29,4.63.88,6.39.59,1.76,1.56,3.21,2.93,4.34,1.37,1.13,3.18,1.98,5.45,2.52,2.27.55,5.08.82,8.44.82,2.19,0,4.36-.41,6.51-1.23,2.15-.82,4.06-1.89,5.75-3.22,1.68-1.33,3.03-2.83,4.05-4.51,1.02-1.68,1.52-3.38,1.52-5.1v-32.36c0-1.64.6-3.05,1.82-4.22,1.21-1.17,2.6-1.76,4.16-1.76h.7c1.64,0,3.05.59,4.22,1.76,1.17,1.17,1.76,2.58,1.76,4.22v52.42c0,1.72-.59,3.15-1.76,4.28Z"/>
      <path class="cls-1" d="M843.21,367.84c0,2.81-.57,5.47-1.7,7.97-1.13,2.5-2.91,4.69-5.34,6.57-2.42,1.88-5.51,3.36-9.26,4.46-3.75,1.09-8.25,1.64-13.49,1.64-4.38,0-8.76-.29-13.13-.88-4.38-.59-8.33-1.45-11.84-2.58-3.52-1.13-6.37-2.54-8.56-4.22-2.19-1.68-3.28-3.58-3.28-5.69,0-1.56.31-2.79.94-3.69.62-.9,1.37-1.54,2.23-1.93.86-.47,1.91-.74,3.17-.82,1.02,0,1.99.23,2.93.7,2.66,1.49,5.32,2.68,7.97,3.58,2.66.9,5.22,1.6,7.68,2.11,2.46.51,4.71.84,6.74,1,2.03.16,3.75.23,5.16.23,1.56,0,3.34-.14,5.34-.41,1.99-.27,3.87-.76,5.63-1.47s3.22-1.62,4.4-2.76c1.17-1.13,1.76-2.6,1.76-4.4,0-1.25-.31-2.33-.94-3.22-.63-.9-1.41-1.64-2.35-2.23-.94-.59-1.98-1.01-3.11-1.29-1.13-.27-2.21-.41-3.22-.41l-18.88-.59c-3.83-.08-7.19-.65-10.08-1.7-2.89-1.06-5.3-2.42-7.21-4.1-1.92-1.68-3.34-3.61-4.28-5.8-.94-2.19-1.41-4.53-1.41-7.04,0-2.35.47-4.67,1.41-6.98.94-2.3,2.56-4.38,4.87-6.21,2.3-1.84,5.35-3.32,9.15-4.46,3.79-1.13,8.54-1.7,14.25-1.7,3.36,0,6.74.29,10.14.88,3.4.59,6.45,1.41,9.15,2.46,2.7,1.06,4.88,2.29,6.57,3.69,1.68,1.41,2.52,2.97,2.52,4.69,0,1.88-.66,3.34-1.99,4.4-1.33,1.06-2.78,1.58-4.34,1.58-.7,0-1.35-.14-1.93-.41-.59-.27-1.19-.57-1.82-.88-2.42-1.09-5.2-2.11-8.33-3.05-3.13-.94-7.11-1.41-11.96-1.41-1.64,0-3.36.14-5.16.41-1.8.27-3.42.72-4.87,1.35-1.45.63-2.64,1.43-3.58,2.4-.94.98-1.41,2.17-1.41,3.58,0,1.25.39,2.29,1.17,3.11.78.82,1.74,1.51,2.87,2.05,1.13.55,2.35.94,3.63,1.17,1.29.23,2.48.35,3.58.35l16.42.59c7.27.23,13.05,1.86,17.35,4.87,4.3,3.01,6.45,7.84,6.45,14.48Z"/>
    </g>
    <g>
      <path class="cls-1" d="M544.18,467.27c0,.96-.36,1.84-1.08,2.64-.72.8-1.67,1.51-2.85,2.13-1.18.63-2.49,1.16-3.94,1.59-1.45.43-2.89.8-4.34,1.08-1.45.29-2.82.51-4.12.65s-2.36.22-3.18.22c-3.08,0-5.97-.45-8.67-1.34-2.7-.89-5.05-2.2-7.05-3.94-2-1.73-3.58-3.89-4.73-6.47-1.16-2.58-1.73-5.55-1.73-8.93s.59-6.42,1.77-9c1.18-2.58,2.78-4.73,4.81-6.47,2.02-1.73,4.37-3.04,7.05-3.9,2.67-.87,5.53-1.3,8.56-1.3.96,0,2.1.08,3.4.25,1.3.17,2.65.41,4.05.72,1.4.31,2.77.71,4.12,1.19,1.35.48,2.57,1.04,3.65,1.66,1.08.63,1.96,1.33,2.64,2.1.67.77,1.01,1.61,1.01,2.53,0,1.11-.39,2-1.16,2.67-.77.68-1.71,1.01-2.82,1.01-.68,0-1.33-.19-1.95-.58-.72-.43-1.54-.89-2.46-1.37-.92-.48-1.9-.93-2.96-1.34-1.06-.41-2.2-.75-3.43-1.01-1.23-.26-2.52-.4-3.87-.4-2.65,0-4.89.41-6.72,1.23-1.83.82-3.3,1.87-4.41,3.14-1.11,1.28-1.92,2.71-2.42,4.3s-.76,3.18-.76,4.77c0,1.45.24,2.94.72,4.48.48,1.54,1.29,2.95,2.42,4.23,1.13,1.28,2.6,2.32,4.41,3.14,1.81.82,4.01,1.23,6.61,1.23,1.3,0,2.6-.12,3.9-.36,1.3-.24,2.54-.57,3.72-.98,1.18-.41,2.28-.85,3.29-1.34,1.01-.48,1.88-.94,2.6-1.37.63-.39,1.28-.58,1.95-.58,1.11,0,2.05.34,2.82,1.01.77.68,1.16,1.57,1.16,2.67Z"/>
      <path class="cls-1" d="M599.31,474.03c-.72.75-1.59,1.12-2.6,1.12h-.43c-1.01,0-1.88-.36-2.6-1.08s-1.08-1.59-1.08-2.6v-2.02c-.96.58-2.1,1.23-3.4,1.95-1.3.72-2.75,1.4-4.34,2.02-1.59.63-3.28,1.14-5.06,1.55-1.78.41-3.64.61-5.56.61-2.02,0-3.89-.33-5.6-.98-1.71-.65-3.17-1.57-4.37-2.75-1.2-1.18-2.14-2.58-2.82-4.19-.68-1.61-1.01-3.41-1.01-5.38s.34-3.65,1.01-5.17c.67-1.52,1.61-2.81,2.82-3.87,1.2-1.06,2.66-1.85,4.37-2.38,1.71-.53,3.58-.79,5.6-.79h18.14c-.19-2.31-1.28-4.2-3.25-5.67-1.98-1.47-4.75-2.2-8.31-2.2-1.78,0-3.4.21-4.84.61-1.45.41-2.72.84-3.83,1.3-1.11.46-2.08.89-2.93,1.3-.84.41-1.53.61-2.06.61-1.11,0-2.07-.33-2.89-.98-.82-.65-1.23-1.53-1.23-2.64,0-1.4.69-2.58,2.06-3.54,1.37-.96,3.02-1.76,4.95-2.38,1.93-.63,3.89-1.07,5.89-1.34,2-.26,3.62-.4,4.88-.4,2.7,0,5.24.31,7.62.94,2.38.63,4.46,1.65,6.21,3.07,1.76,1.42,3.15,3.3,4.19,5.64,1.04,2.34,1.55,5.22,1.55,8.64v18.43c0,.96-.36,1.82-1.08,2.57ZM592.59,457.16h-18.36c-1.49,0-2.87.39-4.12,1.16-1.25.77-1.88,2.05-1.88,3.83,0,1.69.58,3.11,1.73,4.26,1.16,1.16,2.58,1.73,4.26,1.73,2.17,0,4.11-.19,5.82-.58,1.71-.39,3.29-.88,4.73-1.48,1.45-.6,2.79-1.26,4.05-1.99,1.25-.72,2.5-1.45,3.76-2.17v-4.77Z"/>
      <path class="cls-1" d="M654.74,419.58c0,1.11-.41,2.05-1.23,2.82-.82.77-1.76,1.16-2.82,1.16h-2.82c-1.83,0-3.48.25-4.95.76-1.47.51-2.71,1.18-3.72,2.02-1.01.84-1.8,1.77-2.35,2.78-.55,1.01-.83,2.02-.83,3.04v3.4h9.11c1.01,0,1.88.36,2.6,1.08s1.08,1.59,1.08,2.6v.43c0,.96-.36,1.82-1.08,2.57-.72.75-1.59,1.12-2.6,1.12h-9.11v28.11c0,.96-.36,1.82-1.08,2.57s-1.59,1.12-2.6,1.12h-.43c-1.01,0-1.88-.36-2.6-1.08s-1.08-1.59-1.08-2.6v-28.11h-7.15c-.96,0-1.82-.37-2.57-1.12-.75-.75-1.12-1.6-1.12-2.57v-.43c0-1.01.37-1.88,1.12-2.6.75-.72,1.6-1.08,2.57-1.08h7.15v-1.01c0-3.61.6-6.62,1.81-9.03,1.2-2.41,2.76-4.34,4.66-5.78,1.9-1.45,4.02-2.47,6.36-3.07,2.34-.6,4.61-.9,6.83-.9h2.89c1.11,0,2.05.4,2.82,1.19.77.8,1.16,1.67,1.16,2.64Z"/>
      <path class="cls-1" d="M706.2,467.27c0,1.49-.78,2.76-2.35,3.79-1.57,1.04-3.42,1.89-5.56,2.57-2.14.68-4.31,1.17-6.5,1.48-2.19.31-3.91.47-5.17.47-3.08,0-5.96-.45-8.64-1.34-2.67-.89-5.01-2.2-7.01-3.94-2-1.73-3.58-3.89-4.73-6.47-1.16-2.58-1.73-5.55-1.73-8.93s.58-6.35,1.73-8.92c1.16-2.58,2.73-4.73,4.73-6.47,2-1.73,4.34-3.05,7.01-3.94,2.67-.89,5.55-1.34,8.64-1.34s5.61.4,8.02,1.19c2.41.79,4.47,1.93,6.18,3.4,1.71,1.47,3.04,3.28,3.97,5.42.94,2.14,1.41,4.57,1.41,7.26,0,2.17-.77,3.93-2.31,5.28-1.54,1.35-3.4,2.02-5.56,2.02h-25.8c.82,3.04,2.52,5.38,5.09,7.05,2.58,1.66,5.6,2.49,9.07,2.49,1.3,0,2.6-.13,3.9-.4,1.3-.26,2.54-.6,3.72-1.01,1.18-.41,2.29-.87,3.32-1.37,1.04-.51,1.92-.98,2.64-1.41.63-.39,1.28-.58,1.95-.58,1.11,0,2.05.34,2.82,1.01.77.68,1.16,1.57,1.16,2.67ZM697.81,449.35c-.05-1.45-.42-2.67-1.12-3.69-.7-1.01-1.59-1.83-2.67-2.46-1.08-.63-2.28-1.07-3.58-1.34-1.3-.26-2.53-.4-3.69-.4-1.73,0-3.37.24-4.91.72-1.54.48-2.94,1.18-4.19,2.1-1.25.92-2.31,2-3.18,3.25-.87,1.25-1.49,2.65-1.88,4.19h23.63c.72,0,1.17-.22,1.34-.65.17-.43.25-1.01.25-1.73ZM690.51,427.6c0,.87-.29,1.64-.87,2.31-.58.68-1.16,1.01-1.73,1.01-.48,0-.96-.1-1.45-.29-.48-.19-.84-.48-1.08-.87l-3.83-5.71c-.53-.63-.8-1.32-.8-2.1,0-.87.34-1.64,1.01-2.31s1.45-1.01,2.31-1.01c.48,0,.99.16,1.52.47.53.31.91.66,1.16,1.05l3.25,5.71c.34.48.51,1.06.51,1.73Z"/>
    </g>
  </g>
  <g>
    <polygon class="cls-1" points="328.11 534.28 335.27 543.87 318.28 534.11 260.44 512.11 298.57 452.19 284.6 412.93 288.94 398.72 290.45 400.19 308.37 431.47 329.94 458.95 346.03 486.25 328.11 534.28"/>
    <polygon class="cls-1" points="914.68 455.63 931.5 508.58 890.64 539.04 873.8 581.31 836.79 607.93 808.74 643.12 782.81 687.59 733.35 692.8 691.78 713.17 645.54 715.85 600.2 693.48 553.32 727.75 515.48 687.5 463.97 700.23 433.35 660.34 421.42 616.64 436.15 620.7 464.04 640.48 492.39 662.83 529.94 656.66 558.75 699.84 596.36 684.38 634.42 703.93 669.78 687.5 706.75 681.23 733.96 651.45 768.21 639.21 781.58 598.01 811.64 581.01 853.16 570.55 838.16 517.63 848.38 487.08 864.26 459.47 890.22 432.81 873.14 396.94 918.01 365.73 895.16 332.05 902.53 295.85 863.64 272.2 882.82 235.85 896.08 248.81 940.85 280.09 947.52 325.64 956.92 371.35 902.15 411.14 914.68 455.63"/>
    <polygon class="cls-1" points="860.96 201.75 859.41 200.45 822.38 185.5 833.95 133.46 836.13 135.44 854.69 176.1 860.96 201.75"/>
    <polygon class="cls-1" points="824.67 124.99 792.21 120.15 757.58 109.13 719.03 110.97 686.83 107.2 662.47 76.13 629.88 68.22 596.36 78.18 565.81 95.03 530.22 64.38 558.49 54.68 600.2 39.68 641.51 57.74 683.32 61.22 720.06 82 760.01 94.53 803.82 106 824.67 124.99"/>
    <polygon class="cls-1" points="343.67 206.97 308.89 227.28 344.27 277.52 329.42 304.77 273.58 328.56 273.46 328.33 279.56 285.43 302.64 248.1 292.16 193.48 336.49 169 365.01 146.26 362.02 178.85 343.67 206.97"/>
    <polygon class="cls-1" points="449.32 78.99 433.27 106.17 427.17 153.53 378.96 139.23 413.91 128.52 428.66 74.25 449.32 78.99"/>
  </g>
</svg>