<?xml version="1.0" encoding="UTF-8"?>
<svg id="Layer_1" data-name="Layer 1" xmlns="http://www.w3.org/2000/svg" viewBox="0 0 1224 792">
  <defs>
    <style>
      .cls-1 {
        fill: #ede6d6;
      }

      .cls-2 {
        fill: #0d4f42;
      }
    </style>
  </defs>
  <polygon class="cls-1" points="890.1 376.96 844.79 409.88 855.15 446.68 869.07 490.5 835.28 515.7 821.34 550.66 790.71 572.7 767.51 601.81 746.05 638.6 705.14 642.91 670.74 659.77 632.48 661.98 594.97 643.48 556.18 671.82 524.88 638.52 482.26 649.06 456.93 616.05 445.01 572.43 409.43 562.49 394.73 530.58 361.71 511.62 313.86 493.41 345.41 443.84 333.85 411.35 344.37 376.96 324.63 341.36 329.68 305.87 348.77 274.98 340.1 229.79 376.79 209.54 405.03 187.02 440.83 176.04 453.04 131.14 497.39 141.34 527.76 126.17 560.46 114.95 594.97 102.54 629.15 117.49 663.74 120.36 694.13 137.55 727.19 147.92 763.43 157.41 790.17 181.76 805.52 215.42 814.09 250.48 839.76 275.57 876.81 301.45 882.34 339.14 890.1 376.96"/>
  <g>
    <g>
      <path class="cls-2" d="M477.05,365.34c0,3.32-.56,6.53-1.69,9.61-1.13,3.09-2.82,5.8-5.07,8.14-2.26,2.34-5.12,4.21-8.59,5.61-3.47,1.39-7.55,2.09-12.24,2.09-3.09,0-5.98-.52-8.68-1.56-2.7-1.04-5.09-2.45-7.16-4.23v.71c0,1.19-.45,2.24-1.33,3.16-.89.92-1.96,1.38-3.2,1.38h-.53c-1.25,0-2.31-.44-3.2-1.33-.89-.89-1.33-1.96-1.33-3.2v-63.71c0-1.3.45-2.39,1.33-3.25.89-.86,1.96-1.29,3.2-1.29h.53c1.25,0,2.31.45,3.2,1.33s1.33,1.96,1.33,3.2v23.67c2.08-1.78,4.46-3.19,7.16-4.23,2.7-1.04,5.59-1.56,8.68-1.56,4.75,0,8.85.7,12.32,2.09,3.47,1.39,6.33,3.25,8.59,5.56,2.25,2.31,3.93,5.01,5.03,8.1,1.1,3.09,1.65,6.32,1.65,9.7ZM467.09,365.34c0-2.19-.36-4.27-1.07-6.23-.71-1.96-1.78-3.68-3.2-5.16-1.42-1.48-3.25-2.67-5.47-3.56-2.22-.89-4.85-1.33-7.88-1.33-3.68,0-6.9.86-9.65,2.58-2.76,1.72-4.82,3.92-6.18,6.58-.18.65-.36,1.37-.53,2.14-.12.65-.24,1.44-.36,2.36-.12.92-.18,1.88-.18,2.89,0,1.07.07,2.18.22,3.34.15,1.16.43,2.33.85,3.52,1.36,2.67,3.43,4.86,6.18,6.58,2.76,1.72,5.98,2.58,9.65,2.58,3.03,0,5.64-.44,7.83-1.33,2.19-.89,4.02-2.09,5.47-3.6,1.45-1.51,2.54-3.25,3.25-5.21.71-1.96,1.07-4,1.07-6.14Z"/>
      <path class="cls-2" d="M542.63,380.56c0,1.84-.96,3.4-2.89,4.67-1.93,1.28-4.21,2.33-6.85,3.16-2.64.83-5.31,1.44-8.01,1.82-2.7.39-4.82.58-6.36.58-3.8,0-7.34-.55-10.63-1.65-3.29-1.1-6.17-2.71-8.63-4.85-2.46-2.14-4.4-4.79-5.83-7.96-1.42-3.17-2.14-6.84-2.14-10.99s.71-7.82,2.14-10.99c1.42-3.17,3.37-5.83,5.83-7.96,2.46-2.14,5.34-3.75,8.63-4.85,3.29-1.1,6.84-1.65,10.63-1.65s6.91.49,9.88,1.47c2.97.98,5.5,2.37,7.61,4.18,2.11,1.81,3.74,4.03,4.89,6.67,1.16,2.64,1.74,5.62,1.74,8.94,0,2.67-.95,4.84-2.85,6.5-1.9,1.66-4.18,2.49-6.85,2.49h-31.77c1.01,3.74,3.1,6.63,6.27,8.68,3.17,2.05,6.9,3.07,11.17,3.07,1.6,0,3.2-.16,4.81-.49,1.6-.33,3.13-.74,4.58-1.25,1.45-.5,2.82-1.07,4.09-1.69,1.28-.62,2.36-1.2,3.25-1.74.77-.47,1.57-.71,2.4-.71,1.36,0,2.52.42,3.47,1.25.95.83,1.42,1.93,1.42,3.29ZM532.31,358.49c-.06-1.78-.52-3.29-1.38-4.54-.86-1.25-1.96-2.25-3.29-3.03-1.33-.77-2.8-1.32-4.4-1.65-1.6-.33-3.11-.49-4.54-.49-2.14,0-4.15.3-6.05.89-1.9.59-3.62,1.45-5.16,2.58-1.54,1.13-2.85,2.46-3.92,4-1.07,1.54-1.84,3.26-2.31,5.16h29.1c.89,0,1.44-.27,1.65-.8.21-.53.31-1.25.31-2.14Z"/>
      <path class="cls-2" d="M581.56,397.2c-.8,2.31-2.08,4.39-3.83,6.23-1.75,1.84-4,3.34-6.76,4.49-2.76,1.16-6.1,1.74-10.01,1.74-4.39,0-7.86-.58-10.41-1.74-2.55-1.16-4.49-2.45-5.83-3.87-1.33-1.42-2.19-2.76-2.58-4-.39-1.25-.58-1.93-.58-2.05,0-1.72.71-3.09,2.14-4.09.77-.53,1.66-.8,2.67-.8.83,0,1.6.18,2.31.53.71.36,1.3.89,1.78,1.6,1.13,1.72,2.73,2.95,4.81,3.69,2.08.74,4.09,1.11,6.05,1.11,3.74,0,6.64-.88,8.72-2.63,2.08-1.75,3.11-4.14,3.11-7.16v-39.24h-7.74c-1.37,0-2.54-.46-3.51-1.38-.98-.92-1.47-2.06-1.47-3.43s.49-2.51,1.47-3.43c.98-.92,2.15-1.38,3.51-1.38h12.81c1.25,0,2.31.44,3.2,1.33s1.33,1.96,1.33,3.2v44.31c0,2.31-.4,4.63-1.2,6.94ZM581.07,327.26c0,1.72-.59,3.16-1.78,4.32-1.19,1.16-2.58,1.74-4.18,1.74-1.72,0-3.14-.61-4.27-1.82-1.13-1.22-1.69-2.63-1.69-4.23s.56-2.99,1.69-4.18c1.13-1.19,2.55-1.78,4.27-1.78s3.14.56,4.27,1.69c1.13,1.13,1.69,2.55,1.69,4.27Z"/>
      <path class="cls-2" d="M648.43,388.88c-.89.92-1.96,1.38-3.2,1.38h-.53c-1.25,0-2.31-.44-3.2-1.33-.89-.89-1.33-1.96-1.33-3.2v-2.49c-1.19.71-2.58,1.51-4.18,2.4-1.6.89-3.38,1.72-5.34,2.49-1.96.77-4.03,1.41-6.23,1.91-2.2.5-4.48.76-6.85.76-2.49,0-4.79-.4-6.9-1.2-2.11-.8-3.9-1.93-5.38-3.38-1.48-1.45-2.64-3.17-3.47-5.16-.83-1.99-1.25-4.2-1.25-6.63s.41-4.49,1.25-6.36c.83-1.87,1.99-3.46,3.47-4.76,1.48-1.3,3.28-2.28,5.38-2.94,2.11-.65,4.4-.98,6.9-.98h22.34c-.24-2.85-1.57-5.18-4-6.99-2.43-1.81-5.84-2.71-10.23-2.71-2.2,0-4.18.25-5.96.76-1.78.5-3.35,1.04-4.72,1.6-1.37.56-2.57,1.1-3.6,1.6-1.04.5-1.88.76-2.54.76-1.37,0-2.55-.4-3.56-1.2-1.01-.8-1.51-1.88-1.51-3.25,0-1.72.85-3.17,2.54-4.36,1.69-1.19,3.72-2.17,6.1-2.94,2.37-.77,4.79-1.32,7.25-1.65,2.46-.33,4.46-.49,6.01-.49,3.32,0,6.45.39,9.39,1.16,2.94.77,5.49,2.03,7.65,3.78,2.16,1.75,3.88,4.06,5.16,6.94,1.28,2.88,1.91,6.42,1.91,10.63v22.69c0,1.19-.44,2.24-1.33,3.16ZM640.16,368.1h-22.6c-1.84,0-3.53.48-5.07,1.42-1.54.95-2.31,2.52-2.31,4.72,0,2.08.71,3.83,2.14,5.25,1.42,1.42,3.17,2.14,5.25,2.14,2.67,0,5.06-.24,7.16-.71,2.11-.47,4.05-1.08,5.83-1.82,1.78-.74,3.44-1.56,4.98-2.45,1.54-.89,3.08-1.78,4.63-2.67v-5.87Z"/>
      <path class="cls-2" d="M713.3,388.97c-.89.86-1.96,1.29-3.2,1.29h-.53c-1.25,0-2.31-.44-3.2-1.33-.89-.89-1.33-1.96-1.33-3.2v-1.96c-1.72,2.08-3.69,3.77-5.92,5.07-2.22,1.3-4.79,1.96-7.7,1.96-4.15,0-7.68-.52-10.59-1.56-2.91-1.04-5.28-2.48-7.12-4.32-1.84-1.84-3.17-3.99-4-6.45-.83-2.46-1.25-5.12-1.25-7.96v-24.56c0-1.3.44-2.39,1.33-3.25.89-.86,1.96-1.29,3.2-1.29h.53c1.25,0,2.31.44,3.2,1.33.89.89,1.33,1.96,1.33,3.2v24.56c0,1.9.22,3.51.67,4.85.45,1.33,1.19,2.43,2.22,3.29,1.04.86,2.42,1.5,4.14,1.91,1.72.42,3.86.62,6.41.62,1.66,0,3.31-.31,4.94-.93,1.63-.62,3.08-1.44,4.36-2.45,1.28-1.01,2.3-2.15,3.07-3.43.77-1.28,1.16-2.57,1.16-3.87v-24.56c0-1.25.46-2.31,1.38-3.2.92-.89,1.97-1.33,3.16-1.33h.53c1.25,0,2.31.44,3.2,1.33s1.33,1.96,1.33,3.2v39.78c0,1.31-.45,2.39-1.33,3.25Z"/>
      <path class="cls-2" d="M779.95,375.13c0,2.14-.43,4.15-1.29,6.05-.86,1.9-2.21,3.56-4.05,4.98-1.84,1.42-4.18,2.55-7.03,3.38-2.85.83-6.26,1.25-10.23,1.25-3.32,0-6.64-.22-9.97-.67-3.32-.44-6.32-1.1-8.99-1.96-2.67-.86-4.84-1.93-6.5-3.2-1.66-1.28-2.49-2.71-2.49-4.32,0-1.19.24-2.12.71-2.8.47-.68,1.04-1.17,1.69-1.47.65-.36,1.45-.56,2.4-.62.77,0,1.51.18,2.22.53,2.02,1.13,4.03,2.03,6.05,2.71,2.02.68,3.96,1.22,5.83,1.6,1.87.39,3.57.64,5.12.76,1.54.12,2.85.18,3.92.18,1.19,0,2.54-.1,4.05-.31,1.51-.21,2.94-.58,4.27-1.11s2.45-1.23,3.34-2.09c.89-.86,1.33-1.97,1.33-3.34,0-.95-.24-1.76-.71-2.45-.48-.68-1.07-1.25-1.78-1.69-.71-.44-1.5-.77-2.36-.98-.86-.21-1.68-.31-2.45-.31l-14.33-.44c-2.91-.06-5.46-.49-7.65-1.29-2.2-.8-4.02-1.84-5.47-3.11-1.45-1.28-2.54-2.74-3.25-4.4-.71-1.66-1.07-3.44-1.07-5.34,0-1.78.36-3.54,1.07-5.29.71-1.75,1.94-3.32,3.69-4.72,1.75-1.39,4.06-2.52,6.94-3.38,2.88-.86,6.48-1.29,10.81-1.29,2.55,0,5.12.22,7.7.67,2.58.45,4.89,1.07,6.94,1.87,2.05.8,3.71,1.74,4.98,2.8,1.28,1.07,1.91,2.26,1.91,3.56,0,1.42-.5,2.54-1.51,3.34-1.01.8-2.11,1.2-3.29,1.2-.53,0-1.02-.1-1.47-.31-.44-.21-.91-.43-1.38-.67-1.84-.83-3.95-1.6-6.32-2.31-2.37-.71-5.4-1.07-9.08-1.07-1.25,0-2.55.1-3.92.31-1.37.21-2.6.55-3.69,1.02-1.1.48-2,1.08-2.71,1.82-.71.74-1.07,1.65-1.07,2.71,0,.95.3,1.74.89,2.36.59.62,1.32,1.14,2.18,1.56.86.42,1.78.71,2.76.89.98.18,1.88.27,2.71.27l12.46.45c5.52.18,9.91,1.41,13.17,3.69,3.26,2.28,4.89,5.95,4.89,10.99Z"/>
    </g>
    <g>
      <path class="cls-2" d="M553.03,450.58c0,.73-.27,1.4-.82,2-.55.6-1.27,1.14-2.17,1.62-.9.48-1.89.88-2.99,1.21-1.1.33-2.19.6-3.29.82-1.1.22-2.14.38-3.13.49s-1.79.16-2.41.16c-2.34,0-4.53-.34-6.58-1.01-2.05-.68-3.83-1.67-5.35-2.99-1.52-1.32-2.71-2.95-3.59-4.91-.88-1.96-1.32-4.21-1.32-6.77s.45-4.87,1.34-6.83c.9-1.96,2.11-3.59,3.65-4.91,1.54-1.32,3.32-2.3,5.35-2.96,2.03-.66,4.2-.99,6.5-.99.73,0,1.59.06,2.58.19.99.13,2.01.31,3.07.55,1.06.24,2.1.54,3.13.9,1.02.37,1.95.79,2.77,1.26.82.48,1.49,1.01,2,1.59.51.59.77,1.23.77,1.92,0,.84-.29,1.52-.88,2.03-.59.51-1.3.77-2.14.77-.51,0-1.01-.15-1.48-.44-.55-.33-1.17-.68-1.86-1.04-.69-.37-1.44-.7-2.25-1.01-.8-.31-1.67-.57-2.6-.77-.93-.2-1.91-.3-2.93-.3-2.01,0-3.71.31-5.1.93-1.39.62-2.5,1.42-3.35,2.39-.84.97-1.45,2.06-1.84,3.26s-.58,2.41-.58,3.62c0,1.1.18,2.23.55,3.4.37,1.17.98,2.24,1.84,3.21.86.97,1.97,1.76,3.35,2.39,1.37.62,3.04.93,5.02.93.99,0,1.97-.09,2.96-.27.99-.18,1.93-.43,2.82-.74.9-.31,1.73-.65,2.5-1.01.77-.37,1.43-.71,1.97-1.04.47-.29.97-.44,1.48-.44.84,0,1.55.26,2.14.77.58.51.88,1.19.88,2.03Z"/>
      <path class="cls-2" d="M594.88,455.71c-.55.57-1.21.85-1.97.85h-.33c-.77,0-1.43-.27-1.97-.82s-.82-1.21-.82-1.97v-1.54c-.73.44-1.59.93-2.58,1.48-.99.55-2.08,1.06-3.29,1.54-1.21.48-2.49.87-3.84,1.18-1.35.31-2.76.47-4.22.47-1.54,0-2.95-.25-4.25-.74-1.3-.49-2.4-1.19-3.32-2.08-.91-.9-1.63-1.96-2.14-3.18-.51-1.22-.77-2.59-.77-4.09s.26-2.77.77-3.92c.51-1.15,1.22-2.13,2.14-2.93.91-.8,2.02-1.41,3.32-1.81,1.3-.4,2.71-.6,4.25-.6h13.76c-.15-1.75-.97-3.19-2.47-4.31-1.5-1.11-3.6-1.67-6.31-1.67-1.35,0-2.58.16-3.67.47-1.1.31-2.07.64-2.91.99-.84.35-1.58.68-2.22.99-.64.31-1.16.47-1.56.47-.84,0-1.57-.25-2.19-.74-.62-.49-.93-1.16-.93-2,0-1.06.52-1.96,1.56-2.69,1.04-.73,2.29-1.33,3.76-1.81,1.46-.47,2.95-.81,4.47-1.01,1.52-.2,2.75-.3,3.7-.3,2.05,0,3.98.24,5.79.71,1.81.48,3.38,1.25,4.72,2.33,1.33,1.08,2.39,2.5,3.18,4.28.79,1.77,1.18,3.96,1.18,6.55v13.98c0,.73-.27,1.38-.82,1.95ZM589.78,442.91h-13.93c-1.13,0-2.18.29-3.13.88-.95.59-1.43,1.55-1.43,2.91,0,1.28.44,2.36,1.32,3.24.88.88,1.96,1.32,3.24,1.32,1.65,0,3.12-.15,4.41-.44,1.3-.29,2.5-.67,3.59-1.12,1.1-.46,2.12-.96,3.07-1.51.95-.55,1.9-1.1,2.85-1.65v-3.62Z"/>
      <path class="cls-2" d="M636.94,414.39c0,.84-.31,1.55-.93,2.14-.62.59-1.34.88-2.14.88h-2.14c-1.39,0-2.64.19-3.76.58-1.12.38-2.06.9-2.82,1.54-.77.64-1.36,1.34-1.78,2.11-.42.77-.63,1.54-.63,2.3v2.58h6.91c.77,0,1.43.27,1.97.82s.82,1.21.82,1.97v.33c0,.73-.27,1.38-.82,1.95-.55.57-1.21.85-1.97.85h-6.91v21.33c0,.73-.27,1.38-.82,1.95s-1.21.85-1.97.85h-.33c-.77,0-1.43-.27-1.97-.82s-.82-1.21-.82-1.97v-21.33h-5.43c-.73,0-1.38-.28-1.95-.85-.57-.57-.85-1.22-.85-1.95v-.33c0-.77.28-1.43.85-1.97.57-.55,1.22-.82,1.95-.82h5.43v-.77c0-2.74.46-5.03,1.37-6.85.91-1.83,2.09-3.29,3.54-4.39,1.44-1.1,3.05-1.87,4.83-2.33,1.77-.46,3.5-.69,5.18-.69h2.19c.84,0,1.55.3,2.14.9.58.6.88,1.27.88,2Z"/>
      <path class="cls-2" d="M675.98,450.58c0,1.13-.59,2.09-1.78,2.88-1.19.79-2.6,1.44-4.22,1.95-1.63.51-3.27.89-4.94,1.12-1.66.24-2.97.36-3.92.36-2.34,0-4.52-.34-6.55-1.01-2.03-.68-3.8-1.67-5.32-2.99-1.52-1.32-2.71-2.95-3.59-4.91-.88-1.96-1.32-4.21-1.32-6.77s.44-4.82,1.32-6.77c.88-1.96,2.07-3.59,3.59-4.91,1.52-1.32,3.29-2.31,5.32-2.99,2.03-.68,4.21-1.01,6.55-1.01s4.26.3,6.09.9c1.83.6,3.39,1.46,4.69,2.58,1.3,1.12,2.3,2.49,3.02,4.11.71,1.63,1.07,3.46,1.07,5.51,0,1.65-.59,2.98-1.75,4-1.17,1.02-2.58,1.54-4.22,1.54h-19.58c.62,2.3,1.91,4.09,3.87,5.35,1.96,1.26,4.25,1.89,6.88,1.89.99,0,1.97-.1,2.96-.3.99-.2,1.93-.46,2.82-.77.9-.31,1.74-.66,2.52-1.04.79-.38,1.45-.74,2-1.07.47-.29.97-.44,1.48-.44.84,0,1.55.26,2.14.77.58.51.88,1.19.88,2.03ZM669.62,436.98c-.04-1.1-.32-2.03-.85-2.8-.53-.77-1.21-1.39-2.03-1.86-.82-.47-1.73-.81-2.71-1.01-.99-.2-1.92-.3-2.8-.3-1.32,0-2.56.18-3.73.55-1.17.37-2.23.9-3.18,1.59-.95.69-1.75,1.52-2.41,2.47-.66.95-1.13,2.01-1.43,3.18h17.93c.55,0,.89-.16,1.01-.49.13-.33.19-.77.19-1.32ZM664.08,420.48c0,.66-.22,1.24-.66,1.75-.44.51-.88.77-1.32.77-.37,0-.73-.07-1.1-.22-.37-.15-.64-.37-.82-.66l-2.91-4.33c-.4-.47-.6-1.01-.6-1.59,0-.66.26-1.24.77-1.75s1.1-.77,1.75-.77c.36,0,.75.12,1.15.36.4.24.69.5.88.8l2.47,4.33c.26.37.38.8.38,1.32Z"/>
    </g>
  </g>
</svg>