<?xml version="1.0" encoding="UTF-8"?>
<svg id="Layer_1" data-name="Layer 1" xmlns="http://www.w3.org/2000/svg" viewBox="0 0 1224 792">
  <defs>
    <style>
      .cls-1 {
        fill: #ede6d6;
      }
    </style>
  </defs>
  <g>
    <path class="cls-1" d="M470.39,368.62c0,3.81-.65,7.48-1.94,11.01-1.29,3.54-3.23,6.65-5.81,9.33-2.58,2.69-5.86,4.83-9.84,6.42-3.98,1.6-8.65,2.4-14.02,2.4-3.54,0-6.85-.6-9.94-1.78-3.09-1.19-5.83-2.8-8.21-4.84v.82c0,1.36-.51,2.57-1.53,3.62-1.02,1.05-2.24,1.58-3.67,1.58h-.61c-1.43,0-2.65-.51-3.67-1.53-1.02-1.02-1.53-2.24-1.53-3.67v-73.01c0-1.49.51-2.74,1.53-3.72,1.02-.98,2.24-1.48,3.67-1.48h.61c1.43,0,2.65.51,3.67,1.53,1.02,1.02,1.53,2.24,1.53,3.67v27.13c2.38-2.04,5.11-3.65,8.21-4.84,3.09-1.19,6.41-1.78,9.94-1.78,5.44,0,10.15.8,14.12,2.4,3.98,1.6,7.26,3.72,9.84,6.37,2.58,2.65,4.5,5.75,5.76,9.28,1.26,3.54,1.89,7.24,1.89,11.12ZM458.97,368.62c0-2.51-.41-4.89-1.22-7.14-.82-2.24-2.04-4.21-3.67-5.91-1.63-1.7-3.72-3.06-6.27-4.08s-5.56-1.53-9.02-1.53c-4.22,0-7.9.99-11.06,2.96-3.16,1.97-5.52,4.49-7.09,7.55-.2.75-.41,1.56-.61,2.45-.14.75-.27,1.65-.41,2.7-.14,1.05-.2,2.16-.2,3.31,0,1.22.08,2.5.25,3.82.17,1.33.49,2.67.97,4.03,1.56,3.06,3.93,5.58,7.09,7.55,3.16,1.97,6.85,2.96,11.06,2.96,3.47,0,6.46-.51,8.97-1.53,2.51-1.02,4.6-2.4,6.27-4.13,1.67-1.73,2.91-3.72,3.72-5.97.82-2.24,1.22-4.59,1.22-7.04Z"/>
    <path class="cls-1" d="M545.55,386.06c0,2.11-1.11,3.89-3.31,5.35-2.21,1.46-4.83,2.67-7.85,3.62-3.03.95-6.09,1.65-9.18,2.09-3.09.44-5.52.66-7.29.66-4.35,0-8.41-.63-12.19-1.89-3.77-1.26-7.07-3.11-9.89-5.56-2.82-2.45-5.05-5.49-6.68-9.13-1.63-3.64-2.45-7.83-2.45-12.59s.82-8.96,2.45-12.59c1.63-3.64,3.86-6.68,6.68-9.13,2.82-2.45,6.12-4.3,9.89-5.56,3.77-1.26,7.83-1.89,12.19-1.89s7.92.56,11.32,1.68c3.4,1.12,6.31,2.72,8.72,4.79,2.41,2.07,4.28,4.62,5.61,7.65,1.33,3.03,1.99,6.44,1.99,10.25,0,3.06-1.09,5.54-3.26,7.44-2.18,1.9-4.79,2.86-7.85,2.86h-36.41c1.16,4.28,3.55,7.6,7.19,9.94,3.64,2.35,7.9,3.52,12.8,3.52,1.84,0,3.67-.19,5.51-.56,1.84-.37,3.59-.85,5.25-1.43,1.67-.58,3.23-1.22,4.69-1.94,1.46-.71,2.7-1.38,3.72-1.99.88-.54,1.8-.82,2.75-.82,1.56,0,2.89.48,3.98,1.43,1.09.95,1.63,2.21,1.63,3.77ZM533.72,360.77c-.07-2.04-.6-3.77-1.58-5.2-.99-1.43-2.24-2.58-3.77-3.47-1.53-.88-3.21-1.51-5.05-1.89-1.84-.37-3.57-.56-5.2-.56-2.45,0-4.76.34-6.93,1.02-2.18.68-4.15,1.67-5.91,2.96-1.77,1.29-3.26,2.82-4.49,4.59-1.22,1.77-2.11,3.74-2.65,5.91h33.35c1.02,0,1.65-.31,1.89-.92.24-.61.36-1.43.36-2.45Z"/>
    <path class="cls-1" d="M590.16,405.12c-.92,2.65-2.38,5.03-4.39,7.14-2.01,2.11-4.59,3.82-7.75,5.15s-6.99,1.99-11.47,1.99c-5.03,0-9.01-.66-11.93-1.99-2.92-1.33-5.15-2.8-6.68-4.44-1.53-1.63-2.51-3.16-2.96-4.59-.44-1.43-.66-2.21-.66-2.35,0-1.97.82-3.54,2.45-4.69.88-.61,1.9-.92,3.06-.92.95,0,1.84.2,2.65.61.82.41,1.49,1.02,2.04,1.84,1.29,1.97,3.13,3.38,5.51,4.23,2.38.85,4.69,1.27,6.93,1.27,4.28,0,7.61-1,9.99-3.01,2.38-2.01,3.57-4.74,3.57-8.21v-44.97h-8.87c-1.56,0-2.91-.53-4.03-1.58-1.12-1.05-1.68-2.36-1.68-3.93s.56-2.87,1.68-3.93c1.12-1.05,2.46-1.58,4.03-1.58h14.68c1.43,0,2.65.51,3.67,1.53s1.53,2.24,1.53,3.67v50.78c0,2.65-.46,5.3-1.38,7.95ZM589.6,324.97c0,1.97-.68,3.62-2.04,4.95-1.36,1.33-2.96,1.99-4.79,1.99-1.97,0-3.6-.7-4.89-2.09-1.29-1.39-1.94-3.01-1.94-4.84s.65-3.43,1.94-4.79c1.29-1.36,2.92-2.04,4.89-2.04s3.6.65,4.89,1.94c1.29,1.29,1.94,2.92,1.94,4.89Z"/>
    <path class="cls-1" d="M666.8,395.59c-1.02,1.05-2.24,1.58-3.67,1.58h-.61c-1.43,0-2.65-.51-3.67-1.53-1.02-1.02-1.53-2.24-1.53-3.67v-2.86c-1.36.82-2.96,1.73-4.79,2.75-1.84,1.02-3.88,1.97-6.12,2.86-2.24.88-4.62,1.61-7.14,2.19-2.52.58-5.13.87-7.85.87-2.86,0-5.49-.46-7.9-1.38-2.41-.92-4.47-2.21-6.17-3.88-1.7-1.66-3.03-3.64-3.98-5.91-.95-2.28-1.43-4.81-1.43-7.6s.48-5.15,1.43-7.29c.95-2.14,2.28-3.96,3.98-5.46,1.7-1.49,3.76-2.62,6.17-3.37,2.41-.75,5.05-1.12,7.9-1.12h25.6c-.27-3.26-1.8-5.93-4.59-8.01-2.79-2.07-6.7-3.11-11.73-3.11-2.52,0-4.79.29-6.83.87-2.04.58-3.84,1.19-5.4,1.84-1.56.65-2.94,1.26-4.13,1.84-1.19.58-2.16.87-2.91.87-1.56,0-2.92-.46-4.08-1.38-1.16-.92-1.73-2.16-1.73-3.72,0-1.97.97-3.64,2.91-5,1.94-1.36,4.27-2.48,6.99-3.37,2.72-.88,5.49-1.51,8.31-1.89,2.82-.37,5.11-.56,6.88-.56,3.81,0,7.39.44,10.76,1.33,3.37.88,6.29,2.33,8.77,4.33,2.48,2.01,4.45,4.66,5.91,7.95,1.46,3.3,2.19,7.36,2.19,12.19v26c0,1.36-.51,2.57-1.53,3.62ZM657.31,371.78h-25.9c-2.11,0-4.05.54-5.81,1.63-1.77,1.09-2.65,2.89-2.65,5.4,0,2.38.82,4.39,2.45,6.02,1.63,1.63,3.64,2.45,6.02,2.45,3.06,0,5.8-.27,8.21-.82,2.41-.54,4.64-1.24,6.68-2.09,2.04-.85,3.94-1.78,5.71-2.8,1.77-1.02,3.53-2.04,5.3-3.06v-6.73Z"/>
    <path class="cls-1" d="M741.14,395.69c-1.02.98-2.24,1.48-3.67,1.48h-.61c-1.43,0-2.65-.51-3.67-1.53-1.02-1.02-1.53-2.24-1.53-3.67v-2.24c-1.97,2.38-4.23,4.32-6.78,5.81-2.55,1.49-5.49,2.24-8.82,2.24-4.76,0-8.8-.6-12.14-1.78-3.33-1.19-6.05-2.84-8.16-4.95-2.11-2.11-3.64-4.57-4.59-7.39-.95-2.82-1.43-5.86-1.43-9.13v-28.15c0-1.49.51-2.74,1.53-3.72,1.02-.98,2.24-1.48,3.67-1.48h.61c1.43,0,2.65.51,3.67,1.53,1.02,1.02,1.53,2.24,1.53,3.67v28.15c0,2.18.25,4.03.76,5.56.51,1.53,1.36,2.79,2.55,3.77,1.19.99,2.77,1.72,4.74,2.19,1.97.48,4.42.71,7.34.71,1.9,0,3.79-.36,5.66-1.07,1.87-.71,3.53-1.65,5-2.8,1.46-1.16,2.63-2.46,3.52-3.93.88-1.46,1.33-2.94,1.33-4.44v-28.15c0-1.43.53-2.65,1.58-3.67,1.05-1.02,2.26-1.53,3.62-1.53h.61c1.43,0,2.65.51,3.67,1.53s1.53,2.24,1.53,3.67v45.58c0,1.5-.51,2.74-1.53,3.72Z"/>
    <path class="cls-1" d="M817.52,379.83c0,2.45-.49,4.76-1.48,6.93-.99,2.18-2.53,4.08-4.64,5.71-2.11,1.63-4.79,2.92-8.06,3.88-3.26.95-7.17,1.43-11.73,1.43-3.81,0-7.61-.25-11.42-.76-3.81-.51-7.24-1.26-10.3-2.24-3.06-.98-5.54-2.21-7.44-3.67-1.9-1.46-2.86-3.11-2.86-4.95,0-1.36.27-2.43.82-3.21.54-.78,1.19-1.34,1.94-1.68.75-.41,1.66-.65,2.75-.71.88,0,1.73.2,2.55.61,2.31,1.29,4.62,2.33,6.93,3.11,2.31.78,4.54,1.39,6.68,1.84,2.14.44,4.09.73,5.86.87,1.77.14,3.26.2,4.49.2,1.36,0,2.91-.12,4.64-.36,1.73-.24,3.37-.66,4.89-1.27s2.8-1.41,3.82-2.4c1.02-.98,1.53-2.26,1.53-3.82,0-1.09-.27-2.02-.82-2.8-.54-.78-1.22-1.43-2.04-1.94-.82-.51-1.72-.88-2.7-1.12-.99-.24-1.92-.36-2.8-.36l-16.42-.51c-3.33-.07-6.26-.56-8.77-1.48-2.52-.92-4.61-2.11-6.27-3.57-1.67-1.46-2.91-3.14-3.72-5.05-.82-1.9-1.22-3.94-1.22-6.12,0-2.04.41-4.06,1.22-6.07.82-2,2.23-3.81,4.23-5.4,2-1.6,4.66-2.89,7.95-3.88,3.3-.98,7.43-1.48,12.39-1.48,2.92,0,5.86.26,8.82.76,2.96.51,5.61,1.22,7.95,2.14,2.35.92,4.25,1.99,5.71,3.21,1.46,1.22,2.19,2.58,2.19,4.08,0,1.63-.58,2.91-1.73,3.82-1.16.92-2.41,1.38-3.77,1.38-.61,0-1.17-.12-1.68-.36-.51-.24-1.04-.49-1.58-.76-2.11-.95-4.52-1.84-7.24-2.65-2.72-.82-6.19-1.22-10.4-1.22-1.43,0-2.92.12-4.49.36-1.56.24-2.97.63-4.23,1.17-1.26.54-2.29,1.24-3.11,2.09-.82.85-1.22,1.89-1.22,3.11,0,1.09.34,1.99,1.02,2.7.68.71,1.51,1.31,2.5,1.78.98.48,2.04.82,3.16,1.02,1.12.2,2.16.31,3.11.31l14.28.51c6.32.2,11.35,1.62,15.09,4.23,3.74,2.62,5.61,6.82,5.61,12.59Z"/>
  </g>
  <g>
    <path class="cls-1" d="M557.47,466.3c0,.84-.31,1.6-.94,2.29-.63.69-1.46,1.31-2.48,1.85-1.03.54-2.17,1.01-3.43,1.38-1.26.38-2.51.69-3.77.94-1.26.25-2.45.44-3.58.57s-2.05.19-2.77.19c-2.68,0-5.2-.39-7.54-1.16-2.35-.77-4.39-1.92-6.13-3.42-1.74-1.51-3.11-3.38-4.12-5.62-1.01-2.24-1.51-4.83-1.51-7.76s.51-5.58,1.54-7.82c1.03-2.24,2.42-4.12,4.18-5.62,1.76-1.51,3.8-2.64,6.13-3.39,2.33-.75,4.81-1.13,7.45-1.13.84,0,1.82.07,2.95.22,1.13.15,2.3.36,3.52.63,1.21.27,2.41.62,3.58,1.04,1.17.42,2.23.9,3.17,1.45.94.54,1.71,1.15,2.29,1.82.59.67.88,1.4.88,2.2,0,.96-.34,1.74-1.01,2.33-.67.59-1.49.88-2.45.88-.59,0-1.15-.17-1.7-.5-.63-.38-1.34-.77-2.14-1.19-.8-.42-1.66-.81-2.58-1.16-.92-.36-1.92-.65-2.99-.88-1.07-.23-2.19-.35-3.36-.35-2.3,0-4.25.36-5.84,1.07-1.59.71-2.87,1.62-3.83,2.73-.96,1.11-1.67,2.36-2.11,3.74-.44,1.38-.66,2.77-.66,4.15,0,1.26.21,2.56.63,3.9.42,1.34,1.12,2.57,2.11,3.68.98,1.11,2.26,2.02,3.83,2.73,1.57.71,3.49,1.07,5.75,1.07,1.13,0,2.26-.1,3.39-.31,1.13-.21,2.21-.49,3.24-.85,1.03-.36,1.98-.74,2.86-1.16.88-.42,1.63-.82,2.26-1.19.54-.33,1.11-.5,1.7-.5.96,0,1.78.29,2.45.88.67.59,1.01,1.36,1.01,2.33Z"/>
    <path class="cls-1" d="M605.42,472.18c-.63.65-1.38.97-2.26.97h-.38c-.88,0-1.63-.31-2.26-.94s-.94-1.38-.94-2.26v-1.76c-.84.5-1.82,1.07-2.95,1.7s-2.39,1.22-3.77,1.76c-1.38.54-2.85.99-4.4,1.35-1.55.36-3.16.53-4.84.53-1.76,0-3.38-.28-4.87-.85-1.49-.57-2.76-1.36-3.8-2.39-1.05-1.03-1.86-2.24-2.45-3.65-.59-1.4-.88-2.96-.88-4.68s.29-3.17.88-4.49c.59-1.32,1.4-2.44,2.45-3.36,1.05-.92,2.31-1.61,3.8-2.07,1.49-.46,3.11-.69,4.87-.69h15.77c-.17-2.01-1.11-3.65-2.83-4.93-1.72-1.28-4.13-1.92-7.23-1.92-1.55,0-2.95.18-4.21.53-1.26.36-2.37.73-3.33,1.13-.96.4-1.81.78-2.55,1.13-.73.36-1.33.53-1.79.53-.96,0-1.8-.28-2.51-.85-.71-.57-1.07-1.33-1.07-2.29,0-1.21.6-2.24,1.79-3.08,1.19-.84,2.63-1.53,4.3-2.07,1.68-.54,3.38-.93,5.12-1.16,1.74-.23,3.15-.35,4.24-.35,2.35,0,4.56.27,6.63.82,2.07.54,3.87,1.44,5.4,2.67,1.53,1.24,2.74,2.87,3.65,4.9.9,2.03,1.35,4.54,1.35,7.51v16.03c0,.84-.31,1.58-.94,2.23ZM599.57,457.51h-15.96c-1.3,0-2.49.34-3.58,1.01-1.09.67-1.63,1.78-1.63,3.33,0,1.47.5,2.7,1.51,3.71,1.01,1.01,2.24,1.51,3.71,1.51,1.89,0,3.57-.17,5.06-.5,1.49-.33,2.86-.76,4.12-1.29,1.26-.52,2.43-1.1,3.52-1.73,1.09-.63,2.18-1.26,3.27-1.89v-4.15Z"/>
    <path class="cls-1" d="M653.62,424.83c0,.96-.36,1.78-1.07,2.45-.71.67-1.53,1.01-2.45,1.01h-2.45c-1.59,0-3.03.22-4.31.66-1.28.44-2.36,1.03-3.24,1.76-.88.73-1.56,1.54-2.04,2.42-.48.88-.72,1.76-.72,2.64v2.95h7.92c.88,0,1.63.31,2.26.94s.94,1.38.94,2.26v.38c0,.84-.31,1.58-.94,2.23-.63.65-1.38.97-2.26.97h-7.92v24.45c0,.84-.31,1.58-.94,2.23s-1.38.97-2.26.97h-.38c-.88,0-1.63-.31-2.26-.94s-.94-1.38-.94-2.26v-24.45h-6.22c-.84,0-1.58-.32-2.23-.97-.65-.65-.97-1.39-.97-2.23v-.38c0-.88.32-1.63.97-2.26.65-.63,1.39-.94,2.23-.94h6.22v-.88c0-3.14.52-5.76,1.57-7.86,1.05-2.09,2.4-3.77,4.05-5.03,1.65-1.26,3.5-2.15,5.53-2.67,2.03-.52,4.01-.79,5.94-.79h2.51c.96,0,1.78.35,2.45,1.04.67.69,1.01,1.46,1.01,2.29Z"/>
    <path class="cls-1" d="M698.37,466.3c0,1.3-.68,2.4-2.04,3.3-1.36.9-2.98,1.64-4.84,2.23-1.86.59-3.75,1.02-5.66,1.29-1.91.27-3.4.41-4.49.41-2.68,0-5.18-.39-7.51-1.16-2.33-.77-4.36-1.92-6.1-3.42-1.74-1.51-3.11-3.38-4.12-5.62-1.01-2.24-1.51-4.83-1.51-7.76s.5-5.52,1.51-7.76c1.01-2.24,2.38-4.12,4.12-5.62,1.74-1.51,3.77-2.65,6.1-3.43,2.33-.77,4.83-1.16,7.51-1.16s4.88.35,6.98,1.04c2.09.69,3.89,1.68,5.37,2.95,1.49,1.28,2.64,2.85,3.46,4.71.82,1.86,1.23,3.97,1.23,6.32,0,1.89-.67,3.42-2.01,4.59-1.34,1.17-2.95,1.76-4.84,1.76h-22.44c.71,2.64,2.19,4.68,4.43,6.13,2.24,1.45,4.87,2.17,7.89,2.17,1.13,0,2.26-.11,3.39-.35,1.13-.23,2.21-.52,3.24-.88,1.03-.36,1.99-.75,2.89-1.19.9-.44,1.67-.85,2.29-1.23.54-.33,1.11-.5,1.7-.5.96,0,1.78.29,2.45.88.67.59,1.01,1.36,1.01,2.33ZM691.08,450.72c-.04-1.26-.37-2.33-.97-3.21-.61-.88-1.38-1.59-2.33-2.14-.94-.54-1.98-.93-3.11-1.16-1.13-.23-2.2-.35-3.21-.35-1.51,0-2.93.21-4.27.63-1.34.42-2.56,1.03-3.65,1.82-1.09.8-2.01,1.74-2.77,2.83-.75,1.09-1.3,2.3-1.63,3.65h20.55c.63,0,1.02-.19,1.16-.57.15-.38.22-.88.22-1.51ZM684.73,431.8c0,.75-.25,1.42-.75,2.01-.5.59-1.01.88-1.51.88-.42,0-.84-.08-1.26-.25-.42-.17-.73-.42-.94-.75l-3.33-4.96c-.46-.54-.69-1.15-.69-1.82,0-.75.29-1.42.88-2.01.59-.59,1.26-.88,2.01-.88.42,0,.86.14,1.32.41.46.27.8.58,1.01.91l2.83,4.96c.29.42.44.92.44,1.51Z"/>
  </g>
</svg>